<svg width="29" height="22" viewBox="0 0 29 22" fill="none" xmlns="http://www.w3.org/2000/svg">
<path d="M19.25 11.5C19.25 14.0633 16.9623 16.25 14 16.25C11.0377 16.25 8.75 14.0633 8.75 11.5C8.75 8.93674 11.0377 6.75 14 6.75C16.9623 6.75 19.25 8.93674 19.25 11.5Z" stroke="#D8D5D5" stroke-width="1.5"/>
<mask id="path-2-inside-1_53_2" fill="white">
<ellipse cx="5.5" cy="7" rx="0.5" ry="1"/>
</mask>
<ellipse cx="5.5" cy="7" rx="0.5" ry="1" fill="#D8D5D5"/>
<path d="M5 7C5 7.07158 4.99264 7.13364 4.98235 7.18234C4.97727 7.20636 4.97186 7.22528 4.9672 7.23908C4.9649 7.24589 4.96291 7.25106 4.96143 7.25465C4.95994 7.25826 4.9591 7.25996 4.95913 7.25989C4.95915 7.25985 4.96027 7.25761 4.96277 7.25347C4.96527 7.24936 4.96947 7.2428 4.97575 7.23432C4.98772 7.21815 5.01091 7.18998 5.04878 7.15794C5.1269 7.09186 5.28218 7 5.5 7V9C6.2209 9 6.60435 8.44159 6.74798 8.15432C6.92152 7.80724 7 7.39773 7 7H5ZM5.5 7C5.71782 7 5.8731 7.09186 5.95122 7.15794C5.98909 7.18998 6.01228 7.21815 6.02425 7.23432C6.03053 7.2428 6.03473 7.24936 6.03723 7.25347C6.03973 7.25761 6.04085 7.25985 6.04087 7.25989C6.0409 7.25996 6.04006 7.25826 6.03857 7.25465C6.03709 7.25106 6.0351 7.24589 6.0328 7.23908C6.02814 7.22528 6.02273 7.20636 6.01765 7.18234C6.00736 7.13364 6 7.07158 6 7H4C4 7.39773 4.07848 7.80724 4.25202 8.15432C4.39565 8.44159 4.7791 9 5.5 9V7ZM6 7C6 6.92842 6.00736 6.86636 6.01765 6.81766C6.02273 6.79364 6.02814 6.77472 6.0328 6.76092C6.0351 6.75411 6.03709 6.74894 6.03857 6.74535C6.04006 6.74174 6.0409 6.74004 6.04087 6.74011C6.04085 6.74015 6.03973 6.74239 6.03723 6.74653C6.03473 6.75064 6.03053 6.7572 6.02425 6.76568C6.01228 6.78185 5.98909 6.81002 5.95122 6.84206C5.8731 6.90814 5.71782 7 5.5 7V5C4.7791 5 4.39565 5.55841 4.25202 5.84568C4.07848 6.19276 4 6.60227 4 7H6ZM5.5 7C5.28218 7 5.1269 6.90814 5.04878 6.84206C5.01091 6.81002 4.98772 6.78185 4.97575 6.76568C4.96947 6.7572 4.96527 6.75064 4.96277 6.74653C4.96027 6.74239 4.95915 6.74015 4.95913 6.74011C4.9591 6.74004 4.95994 6.74174 4.96143 6.74535C4.96291 6.74894 4.9649 6.75411 4.9672 6.76092C4.97186 6.77472 4.97727 6.79364 4.98235 6.81766C4.99264 6.86636 5 6.92842 5 7H7C7 6.60227 6.92152 6.19276 6.74798 5.84568C6.60435 5.55841 6.2209 5 5.5 5V7Z" fill="#D8D5D5" mask="url(#path-2-inside-1_53_2)"/>
<mask id="path-4-inside-2_53_2" fill="white">
<path fill-rule="evenodd" clip-rule="evenodd" d="M19.7776 2.29632C19.687 1.01298 18.6172 0 17.3108 0H10.7162C9.40985 0 8.34005 1.01298 8.24947 2.29632H7C3.13401 2.29632 0 5.43032 0 9.29632V14.4324C0 18.2984 3.13401 21.4324 7 21.4324H21.3214C25.1874 21.4324 28.3214 18.2984 28.3214 14.4324V9.29632C28.3214 5.43033 25.1874 2.29632 21.3214 2.29632H19.7776Z"/>
</mask>
<path d="M19.7776 2.29632L18.7801 2.36672L18.8457 3.29632H19.7776V2.29632ZM8.24947 2.29632V3.29632H9.18138L9.24699 2.36672L8.24947 2.29632ZM20.7751 2.22591C20.6478 0.42264 19.1459 -1 17.3108 -1V1C18.0885 1 18.7262 1.60332 18.7801 2.36672L20.7751 2.22591ZM17.3108 -1H10.7162V1H17.3108V-1ZM10.7162 -1C8.88116 -1 7.37923 0.422638 7.25195 2.22591L9.24699 2.36672C9.30087 1.60332 9.93854 1 10.7162 1V-1ZM7 3.29632H8.24947V1.29632H7V3.29632ZM1 9.29632C1 5.98261 3.68629 3.29632 7 3.29632V1.29632C2.58172 1.29632 -1 4.87804 -1 9.29632H1ZM1 14.4324V9.29632H-1V14.4324H1ZM7 20.4324C3.68629 20.4324 1 17.7461 1 14.4324H-1C-1 18.8507 2.58173 22.4324 7 22.4324V20.4324ZM21.3214 20.4324H7V22.4324H21.3214V20.4324ZM27.3214 14.4324C27.3214 17.7461 24.6351 20.4324 21.3214 20.4324V22.4324C25.7397 22.4324 29.3214 18.8507 29.3214 14.4324H27.3214ZM27.3214 9.29632V14.4324H29.3214V9.29632H27.3214ZM21.3214 3.29632C24.6351 3.29632 27.3214 5.98261 27.3214 9.29632H29.3214C29.3214 4.87804 25.7397 1.29632 21.3214 1.29632V3.29632ZM19.7776 3.29632H21.3214V1.29632H19.7776V3.29632Z" fill="#D9D9D9" mask="url(#path-4-inside-2_53_2)"/>
</svg>
