<svg width="26" height="25" viewBox="0 0 26 25" fill="none" xmlns="http://www.w3.org/2000/svg">
<circle cx="13.5" cy="12.5" r="5.75" stroke="#D8D5D5" stroke-width="1.5"/>
<path d="M20.5 5.5C20.5 5.82927 20.4101 6.10475 20.2911 6.28331C20.1697 6.46536 20.057 6.5 20 6.5C19.943 6.5 19.8303 6.46536 19.7089 6.28331C19.5899 6.10475 19.5 5.82927 19.5 5.5C19.5 5.17073 19.5899 4.89525 19.7089 4.71669C19.8303 4.53464 19.943 4.5 20 4.5C20.057 4.5 20.1697 4.53464 20.2911 4.71669C20.4101 4.89525 20.5 5.17073 20.5 5.5Z" fill="#D8D5D5" stroke="#D8D5D5"/>
<rect x="0.75" y="0.75" width="24.5" height="23.5" rx="9.25" stroke="#D8D5D5" stroke-width="1.5"/>
</svg>
